<mxfile host="app.diagrams.net" modified="2023-11-19T02:59:14.154Z" agent="Mozilla/5.0 (Windows NT 10.0; Win64; x64) AppleWebKit/537.36 (KHTML, like Gecko) Chrome/119.0.0.0 Safari/537.36" etag="T6U27r9mYFXPBPdQRP_G" version="22.1.3" type="device">
  <diagram name="Page-1" id="cmSUOYmJes7C627hPIZv">
    <mxGraphModel dx="1195" dy="650" grid="1" gridSize="10" guides="1" tooltips="1" connect="1" arrows="1" fold="1" page="1" pageScale="1" pageWidth="850" pageHeight="1100" math="0" shadow="0">
      <root>
        <mxCell id="0" />
        <mxCell id="1" parent="0" />
        <mxCell id="dwzXPjUwf1o_vY8ZqhW1-1" value="Start" style="strokeWidth=2;html=1;shape=mxgraph.flowchart.start_1;whiteSpace=wrap;" vertex="1" parent="1">
          <mxGeometry x="375" y="60" width="100" height="60" as="geometry" />
        </mxCell>
        <mxCell id="dwzXPjUwf1o_vY8ZqhW1-5" style="edgeStyle=orthogonalEdgeStyle;rounded=0;orthogonalLoop=1;jettySize=auto;html=1;entryX=0.5;entryY=0;entryDx=0;entryDy=0;" edge="1" parent="1" source="dwzXPjUwf1o_vY8ZqhW1-2" target="dwzXPjUwf1o_vY8ZqhW1-4">
          <mxGeometry relative="1" as="geometry" />
        </mxCell>
        <mxCell id="dwzXPjUwf1o_vY8ZqhW1-2" value="Declare Vars" style="rounded=1;whiteSpace=wrap;html=1;absoluteArcSize=1;arcSize=14;strokeWidth=2;" vertex="1" parent="1">
          <mxGeometry x="375" y="300" width="100" height="100" as="geometry" />
        </mxCell>
        <mxCell id="dwzXPjUwf1o_vY8ZqhW1-7" style="edgeStyle=orthogonalEdgeStyle;rounded=0;orthogonalLoop=1;jettySize=auto;html=1;entryX=0.5;entryY=0;entryDx=0;entryDy=0;" edge="1" parent="1" source="dwzXPjUwf1o_vY8ZqhW1-4" target="dwzXPjUwf1o_vY8ZqhW1-6">
          <mxGeometry relative="1" as="geometry" />
        </mxCell>
        <mxCell id="dwzXPjUwf1o_vY8ZqhW1-4" value="Call SumInts" style="rounded=1;whiteSpace=wrap;html=1;absoluteArcSize=1;arcSize=14;strokeWidth=2;" vertex="1" parent="1">
          <mxGeometry x="375" y="440" width="100" height="100" as="geometry" />
        </mxCell>
        <mxCell id="dwzXPjUwf1o_vY8ZqhW1-9" style="edgeStyle=orthogonalEdgeStyle;rounded=0;orthogonalLoop=1;jettySize=auto;html=1;entryX=0.5;entryY=0;entryDx=0;entryDy=0;" edge="1" parent="1" source="dwzXPjUwf1o_vY8ZqhW1-6" target="dwzXPjUwf1o_vY8ZqhW1-8">
          <mxGeometry relative="1" as="geometry" />
        </mxCell>
        <mxCell id="dwzXPjUwf1o_vY8ZqhW1-6" value="Display Results of the average of five doubles" style="rounded=1;whiteSpace=wrap;html=1;absoluteArcSize=1;arcSize=14;strokeWidth=2;" vertex="1" parent="1">
          <mxGeometry x="375" y="580" width="100" height="100" as="geometry" />
        </mxCell>
        <mxCell id="dwzXPjUwf1o_vY8ZqhW1-11" style="edgeStyle=orthogonalEdgeStyle;rounded=0;orthogonalLoop=1;jettySize=auto;html=1;" edge="1" parent="1" source="dwzXPjUwf1o_vY8ZqhW1-8" target="dwzXPjUwf1o_vY8ZqhW1-10">
          <mxGeometry relative="1" as="geometry" />
        </mxCell>
        <mxCell id="dwzXPjUwf1o_vY8ZqhW1-8" value="Display results for random int" style="rounded=1;whiteSpace=wrap;html=1;absoluteArcSize=1;arcSize=14;strokeWidth=2;" vertex="1" parent="1">
          <mxGeometry x="375" y="720" width="100" height="100" as="geometry" />
        </mxCell>
        <mxCell id="dwzXPjUwf1o_vY8ZqhW1-13" style="edgeStyle=orthogonalEdgeStyle;rounded=0;orthogonalLoop=1;jettySize=auto;html=1;entryX=0.5;entryY=0;entryDx=0;entryDy=0;" edge="1" parent="1" source="dwzXPjUwf1o_vY8ZqhW1-10" target="dwzXPjUwf1o_vY8ZqhW1-12">
          <mxGeometry relative="1" as="geometry" />
        </mxCell>
        <mxCell id="dwzXPjUwf1o_vY8ZqhW1-10" value="Display bool for if divisible by two" style="rounded=1;whiteSpace=wrap;html=1;absoluteArcSize=1;arcSize=14;strokeWidth=2;" vertex="1" parent="1">
          <mxGeometry x="375" y="860" width="100" height="100" as="geometry" />
        </mxCell>
        <mxCell id="dwzXPjUwf1o_vY8ZqhW1-15" style="edgeStyle=orthogonalEdgeStyle;rounded=0;orthogonalLoop=1;jettySize=auto;html=1;entryX=0.5;entryY=0;entryDx=0;entryDy=0;" edge="1" parent="1" source="dwzXPjUwf1o_vY8ZqhW1-12" target="dwzXPjUwf1o_vY8ZqhW1-14">
          <mxGeometry relative="1" as="geometry" />
        </mxCell>
        <mxCell id="dwzXPjUwf1o_vY8ZqhW1-12" value="Display result from fewest chars" style="rounded=1;whiteSpace=wrap;html=1;absoluteArcSize=1;arcSize=14;strokeWidth=2;" vertex="1" parent="1">
          <mxGeometry x="375" y="1000" width="100" height="100" as="geometry" />
        </mxCell>
        <mxCell id="dwzXPjUwf1o_vY8ZqhW1-17" style="edgeStyle=orthogonalEdgeStyle;rounded=0;orthogonalLoop=1;jettySize=auto;html=1;entryX=0.5;entryY=0;entryDx=0;entryDy=0;" edge="1" parent="1" source="dwzXPjUwf1o_vY8ZqhW1-14" target="dwzXPjUwf1o_vY8ZqhW1-16">
          <mxGeometry relative="1" as="geometry" />
        </mxCell>
        <mxCell id="dwzXPjUwf1o_vY8ZqhW1-14" value="Display MaxDouble" style="rounded=1;whiteSpace=wrap;html=1;absoluteArcSize=1;arcSize=14;strokeWidth=2;" vertex="1" parent="1">
          <mxGeometry x="375" y="1140" width="100" height="100" as="geometry" />
        </mxCell>
        <mxCell id="dwzXPjUwf1o_vY8ZqhW1-19" style="edgeStyle=orthogonalEdgeStyle;rounded=0;orthogonalLoop=1;jettySize=auto;html=1;entryX=0.5;entryY=0;entryDx=0;entryDy=0;" edge="1" parent="1" source="dwzXPjUwf1o_vY8ZqhW1-16" target="dwzXPjUwf1o_vY8ZqhW1-18">
          <mxGeometry relative="1" as="geometry" />
        </mxCell>
        <mxCell id="dwzXPjUwf1o_vY8ZqhW1-16" value="Display ten random ints" style="rounded=1;whiteSpace=wrap;html=1;absoluteArcSize=1;arcSize=14;strokeWidth=2;" vertex="1" parent="1">
          <mxGeometry x="375" y="1280" width="100" height="100" as="geometry" />
        </mxCell>
        <mxCell id="dwzXPjUwf1o_vY8ZqhW1-21" style="edgeStyle=orthogonalEdgeStyle;rounded=0;orthogonalLoop=1;jettySize=auto;html=1;entryX=0.5;entryY=0;entryDx=0;entryDy=0;" edge="1" parent="1" source="dwzXPjUwf1o_vY8ZqhW1-18" target="dwzXPjUwf1o_vY8ZqhW1-20">
          <mxGeometry relative="1" as="geometry" />
        </mxCell>
        <mxCell id="dwzXPjUwf1o_vY8ZqhW1-18" value="Display Compare Bools" style="rounded=1;whiteSpace=wrap;html=1;absoluteArcSize=1;arcSize=14;strokeWidth=2;" vertex="1" parent="1">
          <mxGeometry x="375" y="1420" width="100" height="100" as="geometry" />
        </mxCell>
        <mxCell id="dwzXPjUwf1o_vY8ZqhW1-20" value="Display product from int and double addition" style="rounded=1;whiteSpace=wrap;html=1;absoluteArcSize=1;arcSize=14;strokeWidth=2;" vertex="1" parent="1">
          <mxGeometry x="375" y="1560" width="100" height="100" as="geometry" />
        </mxCell>
        <mxCell id="dwzXPjUwf1o_vY8ZqhW1-24" style="edgeStyle=orthogonalEdgeStyle;rounded=0;orthogonalLoop=1;jettySize=auto;html=1;entryX=0.5;entryY=0;entryDx=0;entryDy=0;" edge="1" parent="1" source="dwzXPjUwf1o_vY8ZqhW1-22" target="dwzXPjUwf1o_vY8ZqhW1-2">
          <mxGeometry relative="1" as="geometry" />
        </mxCell>
        <mxCell id="dwzXPjUwf1o_vY8ZqhW1-25" value="Yes" style="edgeLabel;html=1;align=center;verticalAlign=middle;resizable=0;points=[];" vertex="1" connectable="0" parent="dwzXPjUwf1o_vY8ZqhW1-24">
          <mxGeometry x="-0.3333" y="1" relative="1" as="geometry">
            <mxPoint as="offset" />
          </mxGeometry>
        </mxCell>
        <mxCell id="dwzXPjUwf1o_vY8ZqhW1-22" value="if button pressed" style="strokeWidth=2;html=1;shape=mxgraph.flowchart.decision;whiteSpace=wrap;" vertex="1" parent="1">
          <mxGeometry x="375" y="160" width="100" height="100" as="geometry" />
        </mxCell>
        <mxCell id="dwzXPjUwf1o_vY8ZqhW1-23" style="edgeStyle=orthogonalEdgeStyle;rounded=0;orthogonalLoop=1;jettySize=auto;html=1;entryX=0.508;entryY=-0.05;entryDx=0;entryDy=0;entryPerimeter=0;" edge="1" parent="1" source="dwzXPjUwf1o_vY8ZqhW1-1" target="dwzXPjUwf1o_vY8ZqhW1-22">
          <mxGeometry relative="1" as="geometry" />
        </mxCell>
        <mxCell id="dwzXPjUwf1o_vY8ZqhW1-26" style="edgeStyle=orthogonalEdgeStyle;rounded=0;orthogonalLoop=1;jettySize=auto;html=1;entryX=0;entryY=0.5;entryDx=0;entryDy=0;entryPerimeter=0;" edge="1" parent="1" source="dwzXPjUwf1o_vY8ZqhW1-22" target="dwzXPjUwf1o_vY8ZqhW1-1">
          <mxGeometry relative="1" as="geometry">
            <Array as="points">
              <mxPoint x="355" y="210" />
              <mxPoint x="355" y="90" />
            </Array>
          </mxGeometry>
        </mxCell>
        <mxCell id="dwzXPjUwf1o_vY8ZqhW1-27" value="No" style="edgeLabel;html=1;align=center;verticalAlign=middle;resizable=0;points=[];" vertex="1" connectable="0" parent="dwzXPjUwf1o_vY8ZqhW1-26">
          <mxGeometry x="-0.0312" y="-2" relative="1" as="geometry">
            <mxPoint as="offset" />
          </mxGeometry>
        </mxCell>
        <mxCell id="dwzXPjUwf1o_vY8ZqhW1-28" value="End" style="strokeWidth=2;html=1;shape=mxgraph.flowchart.terminator;whiteSpace=wrap;" vertex="1" parent="1">
          <mxGeometry x="375" y="1700" width="100" height="60" as="geometry" />
        </mxCell>
        <mxCell id="dwzXPjUwf1o_vY8ZqhW1-29" style="edgeStyle=orthogonalEdgeStyle;rounded=0;orthogonalLoop=1;jettySize=auto;html=1;entryX=0.5;entryY=0;entryDx=0;entryDy=0;entryPerimeter=0;" edge="1" parent="1" source="dwzXPjUwf1o_vY8ZqhW1-20" target="dwzXPjUwf1o_vY8ZqhW1-28">
          <mxGeometry relative="1" as="geometry" />
        </mxCell>
      </root>
    </mxGraphModel>
  </diagram>
</mxfile>
